<svg fill="orange" xmlns="http://www.w3.org/2000/svg" viewBox="0 0 32 32"><path d="M28 18a1 1 0 0 0 1-1V6.84a1 1 0 0 0-.08-.25v-.08a1.13 1.13 0 0 0-.22-.27.71.71 0 0 0-.17-.11h-.14l-13-4a1 1 0 0 0-.88.15l-11 8v.05a.77.77 0 0 0-.23.28v.12a.94.94 0 0 0-.06.28A.25.25 0 0 0 3 11v14a1 1 0 0 0 .73 1l14 4a.84.84 0 0 0 .27 0 1.13 1.13 0 0 0 .32-.05l.09-.05.19-.1 10-8a1 1 0 1 0-1.24-1.56L19 26.92V15.48l8-6.4V17a1 1 0 0 0 1 1zM15.18 4.1 25.9 7.4l-3.11 2.49-10.94-3.37zM5 12.33l8.73 2.49a1 1 0 0 0 .54-1.92l-8-2.3L9.83 8l11.07 3.4-3.52 2.82a.84.84 0 0 0-.18.23.86.86 0 0 0-.07.1A1.07 1.07 0 0 0 17 15v12.67L5 24.25z"/></svg>