<!DOCTYPE svg PUBLIC "-//W3C//DTD SVG 1.1//EN" "http://www.w3.org/Graphics/SVG/1.1/DTD/svg11.dtd">

<!-- Uploaded to: SVG Repo, www.svgrepo.com, Transformed by: SVG Repo Mixer Tools -->
<svg fill="#000000" height="256px" width="256px" version="1.1" id="Layer_1" xmlns="http://www.w3.org/2000/svg" xmlns:xlink="http://www.w3.org/1999/xlink" viewBox="-51.2 -51.2 614.40 614.40" xml:space="preserve" transform="matrix(1, 0, 0, 1, 0, 0)rotate(0)">

<g id="SVGRepo_bgCarrier" stroke-width="0"/>

<g id="SVGRepo_tracerCarrier" stroke-linecap="round" stroke-linejoin="round" stroke="#030303" stroke-width="23.552"> <g> <g> <path d="M511.531,8.384c-0.128-0.576-0.128-1.195-0.363-1.749c-1.088-2.645-3.179-4.736-5.824-5.824 c-0.555-0.235-1.152-0.213-1.749-0.363C502.869,0.299,502.144,0,501.333,0H160c-0.619,0-1.173,0.256-1.771,0.363 c-0.768,0.128-1.557,0.149-2.283,0.448c-1.323,0.555-2.496,1.323-3.499,2.325L3.115,152.469c-0.085,0.085-0.107,0.213-0.213,0.299 c-0.853,0.917-1.6,1.963-2.091,3.136C0.277,157.248,0,158.635,0,160.043v341.291C0,507.221,4.779,512,10.667,512H352 c1.387,0,2.773-0.277,4.075-0.832c1.195-0.491,2.219-1.237,3.157-2.091c0.085-0.085,0.213-0.107,0.299-0.192l149.333-149.333 c0.981-0.981,1.771-2.176,2.304-3.477c0.299-0.747,0.341-1.515,0.469-2.304c0.107-0.597,0.363-1.152,0.363-1.771V10.667 C512,9.856,511.701,9.131,511.531,8.384z M341.333,490.667h-320v-320h320V490.667z M347.584,149.333H36.416l128-128h311.168 L347.584,149.333z M490.667,347.584l-128,128V164.416l128-128V347.584z"/> </g> </g> </g>

<g id="SVGRepo_iconCarrier"> <g> 
<g> 

<defs>
        <linearGradient id="MyGradient">
          <stop offset="5%" stop-color="#F60" />
          <stop offset="95%" stop-color="#FF6" />
        </linearGradient>
      </defs>

<path id="icon" style="fill:url(#MyGradient);" d="M511.531,8.384c-0.128-0.576-0.128-1.195-0.363-1.749c-1.088-2.645-3.179-4.736-5.824-5.824 c-0.555-0.235-1.152-0.213-1.749-0.363C502.869,0.299,502.144,0,501.333,0H160c-0.619,0-1.173,0.256-1.771,0.363 c-0.768,0.128-1.557,0.149-2.283,0.448c-1.323,0.555-2.496,1.323-3.499,2.325L3.115,152.469c-0.085,0.085-0.107,0.213-0.213,0.299 c-0.853,0.917-1.6,1.963-2.091,3.136C0.277,157.248,0,158.635,0,160.043v341.291C0,507.221,4.779,512,10.667,512H352 c1.387,0,2.773-0.277,4.075-0.832c1.195-0.491,2.219-1.237,3.157-2.091c0.085-0.085,0.213-0.107,0.299-0.192l149.333-149.333 c0.981-0.981,1.771-2.176,2.304-3.477c0.299-0.747,0.341-1.515,0.469-2.304c0.107-0.597,0.363-1.152,0.363-1.771V10.667 C512,9.856,511.701,9.131,511.531,8.384z M341.333,490.667h-320v-320h320V490.667z M347.584,149.333H36.416l128-128h311.168 L347.584,149.333z M490.667,347.584l-128,128V164.416l128-128V347.584z"/> </g> </g> </g>

</svg>