<?xml version="1.0" standalone="no"?>
<!DOCTYPE svg PUBLIC "-//W3C//DTD SVG 20010904//EN"
 "http://www.w3.org/TR/2001/REC-SVG-20010904/DTD/svg10.dtd">
<svg version="1.0" xmlns="http://www.w3.org/2000/svg"
 width="1024.000000pt" height="1024.000000pt" viewBox="0 0 1024.000000 1024.000000"
 preserveAspectRatio="xMidYMid meet">

<g transform="translate(0.000000,1024.000000) scale(0.100000,-0.100000)"
fill="#000000" stroke="none">
<path d="M6388 8063 c7 -3 16 -2 19 1 4 3 -2 6 -13 5 -11 0 -14 -3 -6 -6z"/>
<path d="M6422 8065 c4 -5 3 -14 -4 -22 -8 -10 -8 -17 1 -26 10 -9 11 -8 6 4
-4 10 -2 20 4 24 6 3 11 -1 11 -10 0 -9 7 -15 16 -13 10 2 19 -3 21 -9 3 -8
-4 -13 -17 -13 -19 0 -20 -2 -10 -15 9 -10 9 -15 1 -15 -6 0 -11 -5 -11 -10 0
-6 7 -10 16 -8 10 2 19 -3 21 -9 3 -9 -6 -13 -26 -13 -21 0 -31 -5 -31 -16 0
-8 4 -13 9 -10 5 3 12 -1 15 -9 3 -8 9 -15 13 -14 22 4 43 -2 43 -12 0 -5 -4
-8 -9 -4 -5 3 -12 1 -16 -4 -3 -6 -13 -7 -23 -4 -15 6 -15 5 -3 -10 9 -11 10
-17 2 -17 -6 0 -11 -5 -11 -10 0 -6 7 -10 16 -8 10 2 19 -3 21 -9 7 -19 -44
-16 -51 3 -3 9 -3 21 1 26 3 7 1 8 -5 4 -16 -10 -15 -31 3 -46 8 -7 15 -21 15
-31 0 -12 7 -19 20 -19 11 0 20 -4 20 -10 0 -5 -10 -10 -21 -10 -17 0 -19 -3
-10 -13 7 -9 7 -17 0 -24 -7 -7 -3 -10 16 -10 15 0 32 -6 38 -13 9 -10 9 -11
-3 -8 -8 3 -23 1 -32 -3 -11 -6 -22 -4 -31 6 -13 12 -15 10 -20 -18 -3 -18 -1
-36 3 -41 5 -4 7 0 7 9 -1 10 4 20 11 22 8 3 10 -1 6 -12 -5 -12 -2 -16 11
-13 10 2 20 -3 22 -9 3 -8 -4 -13 -17 -13 -19 0 -20 -2 -10 -15 9 -10 9 -15 1
-15 -6 0 -11 -5 -11 -10 0 -6 7 -10 16 -8 10 2 19 -3 21 -9 7 -20 -26 -15 -54
7 -14 11 -30 16 -37 12 -7 -4 -2 -8 12 -10 30 -5 32 -52 1 -52 -11 0 -17 -4
-14 -11 5 -7 15 -5 30 5 20 13 24 13 29 1 3 -9 9 -15 13 -14 22 4 43 -2 43
-12 0 -5 -4 -8 -9 -4 -5 3 -13 1 -16 -5 -5 -8 -11 -7 -21 1 -17 14 -19 -2 -2
-19 9 -9 9 -12 0 -12 -7 0 -12 -5 -12 -10 0 -6 6 -10 13 -9 25 3 47 -1 47 -10
0 -4 -18 -7 -40 -6 -22 1 -40 -2 -40 -6 0 -5 5 -9 10 -9 6 0 10 -6 10 -14 0
-8 14 -17 30 -21 17 -4 30 -10 30 -15 0 -4 -13 -7 -30 -6 -32 2 -37 -3 -18
-22 9 -9 9 -12 0 -12 -7 0 -12 -5 -12 -10 0 -6 6 -10 13 -9 24 3 47 -1 47 -8
0 -5 -17 -9 -37 -11 -21 -1 -41 -9 -46 -17 -4 -8 -15 -15 -23 -15 -8 0 -12 -5
-9 -11 5 -7 15 -5 31 5 29 20 35 20 28 2 -3 -8 1 -14 8 -13 29 1 48 -3 48 -11
0 -5 -13 -8 -30 -7 -32 2 -37 -4 -18 -23 9 -9 9 -12 0 -12 -7 0 -12 -5 -12
-10 0 -6 6 -10 13 -9 25 3 47 -1 47 -10 0 -5 -6 -8 -12 -7 -7 0 -14 -3 -15 -9
-2 -5 3 -10 10 -10 6 0 20 -8 30 -17 9 -10 23 -18 31 -18 8 0 16 -4 18 -8 2
-5 116 -72 254 -150 137 -78 258 -148 267 -155 14 -10 -21 -33 -249 -161 -146
-82 -268 -156 -271 -163 -3 -8 -12 -12 -19 -9 -10 4 -14 -3 -15 -22 l-1 -27
-8 25 c-6 22 -8 23 -15 8 -4 -10 -10 -16 -14 -14 -4 3 -13 1 -21 -4 -12 -7 -9
-11 10 -19 22 -9 23 -10 5 -12 -11 -1 -26 -2 -32 -2 -7 1 -13 -3 -13 -7 0 -5
6 -11 13 -14 10 -5 10 -7 0 -12 -7 -3 -13 -9 -13 -14 0 -4 6 -8 13 -7 6 0 21
-1 32 -2 18 -2 18 -3 -3 -12 -15 -6 -30 -5 -43 1 -16 9 -19 7 -19 -10 0 -11 3
-19 8 -18 4 2 8 -1 10 -7 1 -5 17 -15 35 -22 24 -9 27 -12 12 -13 -11 -1 -26
-2 -32 -1 -7 1 -13 -3 -13 -9 0 -5 5 -10 12 -10 9 0 9 -3 0 -12 -15 -15 -16
-32 -2 -23 6 3 20 3 32 -1 l23 -7 -25 -9 c-18 -7 -30 -4 -52 12 -15 11 -33 20
-40 20 -7 0 -2 -6 12 -13 14 -7 24 -21 24 -30 -1 -9 2 -14 7 -11 5 3 9 -1 9
-10 0 -8 14 -17 33 -22 27 -6 29 -8 12 -14 -11 -4 -26 -5 -32 -3 -7 3 -13 0
-13 -6 0 -6 5 -11 11 -11 8 0 8 -5 -1 -15 -10 -13 -9 -15 11 -16 13 -1 27 -1
32 0 4 0 7 -3 7 -8 0 -12 -31 -19 -74 -16 -20 2 -36 -1 -36 -6 0 -8 22 -13 43
-10 4 0 7 -6 7 -14 0 -14 14 -19 48 -18 6 1 12 -3 12 -8 0 -9 -22 -13 -47 -10
-7 1 -13 -2 -13 -8 0 -5 6 -12 13 -15 10 -5 10 -7 0 -12 -23 -10 -14 -20 17
-18 17 1 30 -2 30 -6 0 -13 -42 -20 -61 -10 -16 9 -16 7 -6 -20 7 -19 19 -30
30 -30 11 0 17 -5 14 -12 -2 -7 -11 -12 -21 -10 -9 2 -16 -2 -16 -8 0 -5 5
-10 12 -10 9 0 9 -3 0 -12 -19 -19 -14 -24 18 -22 17 1 30 -2 30 -6 0 -12 -42
-20 -59 -10 -13 6 -17 4 -17 -10 0 -10 4 -16 8 -14 4 3 8 -2 8 -10 0 -14 24
-22 53 -17 4 0 7 -3 7 -9 0 -10 -21 -14 -49 -10 -12 1 -12 -1 -3 -12 9 -11 9
-17 0 -26 -9 -9 -7 -12 10 -12 12 0 22 -4 22 -9 0 -16 -19 -22 -38 -12 -14 8
-18 6 -19 -10 -1 -11 2 -17 8 -14 5 4 9 -1 9 -9 0 -14 24 -22 53 -17 4 0 7 -3
7 -9 0 -10 -21 -14 -47 -11 -18 3 -16 -16 2 -23 8 -3 15 -13 15 -22 0 -10 5
-14 15 -10 8 3 15 1 15 -4 0 -16 -30 -11 -36 5 -9 23 -26 18 -22 -7 5 -40 67
-25 86 20 9 22 10 23 6 4 -6 -23 -5 -23 18 -9 41 26 956 537 972 543 15 6 16
-89 14 -1072 l-3 -1079 -459 -271 c-252 -150 -468 -280 -480 -290 -11 -10 -22
-17 -24 -15 -6 6 -132 -71 -132 -80 0 -8 18 -13 48 -12 6 1 12 -3 12 -8 0 -5
-14 -9 -31 -9 -25 0 -29 -3 -20 -13 8 -10 7 -17 -1 -25 -9 -9 -7 -12 10 -12
12 0 22 -4 22 -9 0 -16 -19 -22 -38 -12 -14 8 -18 6 -19 -10 -1 -11 2 -17 7
-14 4 3 11 -2 14 -10 3 -8 11 -14 18 -13 7 2 13 -4 13 -12 0 -9 -7 -14 -19
-12 -17 3 -18 1 -7 -11 8 -10 9 -17 1 -22 -5 -3 -10 -11 -10 -17 0 -7 5 -6 14
1 11 9 16 9 21 1 12 -19 -10 -33 -33 -21 -19 10 -20 9 -9 -19 7 -19 19 -30 30
-30 11 0 17 -5 14 -12 -2 -7 -12 -11 -22 -10 -15 3 -17 1 -7 -10 9 -11 9 -17
0 -26 -9 -9 -7 -12 10 -12 12 0 22 -4 22 -9 0 -17 -19 -22 -41 -10 -16 8 -20
8 -14 0 9 -16 -13 -41 -31 -34 -8 3 -14 0 -14 -6 0 -16 21 -13 42 6 17 15 18
15 18 -1 0 -10 6 -16 16 -14 10 2 19 -3 21 -9 3 -8 -4 -13 -17 -13 -18 0 -20
-3 -11 -13 8 -10 7 -17 -1 -25 -9 -9 -7 -12 10 -12 12 0 22 -4 22 -10 0 -5
-11 -10 -25 -10 -24 0 -29 8 -26 40 1 10 -1 11 -6 4 -4 -7 -17 -14 -28 -17
-18 -4 -18 -5 3 -6 17 -1 22 -7 22 -28 0 -19 3 -24 9 -15 6 10 10 9 14 -7 3
-12 11 -20 19 -19 7 2 13 -4 13 -12 0 -9 -7 -14 -19 -12 -17 3 -18 2 -7 -12 9
-11 10 -16 2 -16 -6 0 -11 -5 -11 -10 0 -6 8 -10 18 -8 9 2 17 -3 17 -11 0
-24 -20 -23 -49 4 -15 14 -32 22 -39 18 -8 -4 -7 -8 3 -11 25 -8 50 -34 50
-54 0 -11 7 -18 20 -18 11 0 20 -4 20 -10 0 -5 -10 -10 -21 -10 -17 0 -19 -3
-10 -13 8 -10 7 -17 -1 -25 -9 -9 -7 -12 10 -12 12 0 22 -4 22 -9 0 -17 -19
-22 -39 -12 -18 10 -18 9 -8 -19 6 -17 18 -29 26 -27 7 1 16 -4 18 -10 3 -8
-4 -13 -17 -13 -19 0 -20 -2 -10 -15 9 -10 9 -15 1 -15 -6 0 -11 -4 -11 -10 0
-5 9 -10 20 -10 11 0 20 -4 20 -10 0 -15 -36 -12 -50 5 -7 8 -22 14 -34 14
-20 -2 -20 -2 2 -6 15 -3 22 -12 22 -27 0 -29 23 -29 54 -1 12 11 28 19 34 17
11 -3 16 15 13 48 -2 13 -1 13 8 0 5 -8 7 -18 5 -22 -3 -4 -2 -8 1 -8 3 0 189
107 413 239 1249 732 1198 700 1278 800 52 65 116 191 141 276 16 56 18 166
21 1510 2 977 0 1480 -8 1542 -23 202 -123 374 -284 487 -52 37 -328 193
-1312 744 -100 56 -189 102 -198 102 -10 0 -15 4 -12 8 3 5 -11 16 -31 26 -29
14 -38 15 -45 4 -7 -10 -8 -8 -4 4 4 14 -5 23 -37 39 -23 12 -39 18 -35 14z
m111 -78 c3 -8 2 -20 -3 -26 -5 -9 -7 -4 -7 13 0 29 2 32 10 13z m-33 -7 c0
-5 -5 -10 -11 -10 -5 0 -7 5 -4 10 3 6 8 10 11 10 2 0 4 -4 4 -10z m60 -40 c0
-5 -7 -10 -16 -10 -8 0 -12 5 -9 10 3 6 10 10 16 10 5 0 9 -4 9 -10z m-60 -30
c0 -5 -8 -10 -17 -10 -15 0 -16 2 -3 10 19 12 20 12 20 0z m46 -30 c8 0 14 -4
14 -9 0 -6 -8 -9 -18 -8 -13 1 -18 10 -19 31 0 21 1 24 4 9 2 -13 11 -23 19
-23z m-46 -40 c0 -5 -5 -10 -11 -10 -5 0 -7 5 -4 10 3 6 8 10 11 10 2 0 4 -4
4 -10z m33 -15 c-3 -9 -8 -14 -10 -11 -3 3 -2 9 2 15 9 16 15 13 8 -4z m27
-25 c0 -5 -7 -10 -15 -10 -9 0 -15 -10 -16 -22 -1 -18 -2 -19 -6 -5 -5 18 12
47 28 47 5 0 9 -4 9 -10z m-60 -30 c0 -5 -8 -10 -17 -10 -15 0 -16 2 -3 10 19
12 20 12 20 0z m0 -70 c0 -5 -5 -10 -11 -10 -5 0 -7 5 -4 10 3 6 8 10 11 10 2
0 4 -4 4 -10z m33 -15 c-3 -9 -8 -14 -10 -11 -3 3 -2 9 2 15 9 16 15 13 8 -4z
m27 -25 c0 -5 -7 -10 -16 -10 -8 0 -12 5 -9 10 3 6 10 10 16 10 5 0 9 -4 9
-10z m-60 -30 c0 -5 -5 -10 -11 -10 -5 0 -7 5 -4 10 3 6 8 10 11 10 2 0 4 -4
4 -10z m60 -40 c0 -5 -2 -10 -4 -10 -3 0 -8 5 -11 10 -3 6 -1 10 4 10 6 0 11
-4 11 -10z m-27 -23 c3 -8 2 -20 -3 -26 -5 -9 -7 -4 -7 13 0 29 2 32 10 13z
m-33 -7 c0 -5 -5 -10 -11 -10 -5 0 -7 5 -4 10 3 6 8 10 11 10 2 0 4 -4 4 -10z
m60 -40 c0 -5 -2 -10 -4 -10 -3 0 -8 5 -11 10 -3 6 -1 10 4 10 6 0 11 -4 11
-10z m-60 -30 c0 -5 -8 -10 -17 -10 -15 0 -16 2 -3 10 19 12 20 12 20 0z m60
-39 c0 -4 -8 -7 -18 -7 -10 0 -19 5 -19 12 0 6 9 9 19 6 10 -2 18 -7 18 -11z
m-60 -31 c0 -5 -5 -10 -11 -10 -5 0 -7 5 -4 10 3 6 8 10 11 10 2 0 4 -4 4 -10z
m33 -15 c-3 -9 -8 -14 -10 -11 -3 3 -2 9 2 15 9 16 15 13 8 -4z m27 -25 c0 -5
-4 -10 -10 -10 -5 0 -10 5 -10 10 0 6 5 10 10 10 6 0 10 -4 10 -10z m-60 -30
c0 -5 -8 -10 -17 -10 -15 0 -16 2 -3 10 19 12 20 12 20 0z m27 -12 c-3 -8 -6
-5 -6 6 -1 11 2 17 5 13 3 -3 4 -12 1 -19z m33 -28 c0 -5 -7 -7 -15 -4 -8 4
-15 8 -15 10 0 2 7 4 15 4 8 0 15 -4 15 -10z m-60 -30 c0 -5 -5 -10 -11 -10
-5 0 -7 5 -4 10 3 6 8 10 11 10 2 0 4 -4 4 -10z m34 -15 c-4 -9 0 -15 10 -15
9 0 16 -4 16 -8 0 -4 -8 -8 -19 -8 -12 0 -17 7 -16 21 3 23 3 25 10 25 2 0 2
-7 -1 -15z m26 -95 c0 -5 -2 -10 -4 -10 -3 0 -8 5 -11 10 -3 6 -1 10 4 10 6 0
11 -4 11 -10z m-60 -30 c0 -5 -5 -10 -11 -10 -5 0 -7 5 -4 10 3 6 8 10 11 10
2 0 4 -4 4 -10z m33 -15 c-3 -9 1 -15 11 -15 9 0 16 -4 16 -10 0 -14 -16 -12
-27 3 -12 14 -13 48 -2 41 5 -2 6 -11 2 -19z m-33 -825 c0 -5 -5 -10 -11 -10
-5 0 -7 5 -4 10 3 6 8 10 11 10 2 0 4 -4 4 -10z m34 -15 c-4 -9 0 -15 10 -15
9 0 16 -5 16 -10 0 -7 -6 -7 -20 0 -21 11 -25 22 -13 33 10 11 13 8 7 -8z m26
-95 c0 -5 -7 -7 -15 -4 -8 4 -15 1 -15 -7 0 -7 -3 -10 -6 -6 -9 9 5 27 22 27
8 0 14 -4 14 -10z m-60 -30 c0 -5 -4 -10 -10 -10 -5 0 -10 5 -10 10 0 6 5 10
10 10 6 0 10 -4 10 -10z m34 -15 c-4 -8 -8 -15 -10 -15 -2 0 -4 7 -4 15 0 8 4
15 10 15 5 0 7 -7 4 -15z m-34 -55 c0 -5 -7 -7 -15 -4 -8 4 -15 8 -15 10 0 2
7 4 15 4 8 0 15 -4 15 -10z m60 -39 c0 -4 -8 -7 -18 -7 -10 0 -19 5 -19 12 0
6 9 9 19 6 10 -2 18 -7 18 -11z m-60 -31 c0 -5 -2 -10 -4 -10 -3 0 -8 5 -11
10 -3 6 -1 10 4 10 6 0 11 -4 11 -10z m90 6 c0 -3 -4 -8 -10 -11 -5 -3 -10 -1
-10 4 0 6 5 11 10 11 6 0 10 -2 10 -4z m-30 -46 c0 -5 -7 -7 -15 -4 -8 4 -15
8 -15 10 0 2 7 4 15 4 8 0 15 -4 15 -10z m-33 -47 c-3 -10 -5 -4 -5 12 0 17 2
24 5 18 2 -7 2 -21 0 -30z m33 -13 c0 -5 -5 -10 -11 -10 -5 0 -7 5 -4 10 3 6
8 10 11 10 2 0 4 -4 4 -10z m-60 -40 c0 -5 -4 -10 -10 -10 -5 0 -10 5 -10 10
0 6 5 10 10 10 6 0 10 -4 10 -10z m50 -33 c12 -4 12 -6 -2 -6 -9 -1 -19 -11
-21 -23 -2 -13 -4 -6 -4 15 0 21 3 34 6 29 3 -5 13 -12 21 -15z m-50 -37 c0
-5 -7 -7 -15 -4 -8 4 -15 8 -15 10 0 2 7 4 15 4 8 0 15 -4 15 -10z m0 -70 c0
-5 -2 -10 -4 -10 -3 0 -8 5 -11 10 -3 6 -1 10 4 10 6 0 11 -4 11 -10z m34 -14
c-3 -8 2 -16 13 -20 15 -4 15 -5 -2 -3 -20 2 -35 37 -16 37 6 0 8 -6 5 -14z
m13 -93 c-12 -3 -16 -10 -12 -21 5 -13 3 -14 -6 -5 -14 14 -3 33 19 32 15 -1
14 -2 -1 -6z m-47 -33 c0 -5 -2 -10 -4 -10 -3 0 -8 5 -11 10 -3 6 -1 10 4 10
6 0 11 -4 11 -10z m57 -36 c-3 -3 -12 -4 -19 -1 -8 3 -5 6 6 6 11 1 17 -2 13
-5z m-30 -51 c-3 -10 -5 -4 -5 12 0 17 2 24 5 18 2 -7 2 -21 0 -30z m-27 17
c0 -5 -7 -7 -15 -4 -8 4 -15 8 -15 10 0 2 7 4 15 4 8 0 15 -4 15 -10z m60 -30
c0 -5 -5 -10 -11 -10 -5 0 -7 5 -4 10 3 6 8 10 11 10 2 0 4 -4 4 -10z m0
-2270 c0 -5 -5 -10 -11 -10 -5 0 -7 5 -4 10 3 6 8 10 11 10 2 0 4 -4 4 -10z
m-60 -40 c0 -5 -7 -7 -15 -4 -8 4 -15 8 -15 10 0 2 7 4 15 4 8 0 15 -4 15 -10z
m60 -30 c0 -5 -5 -10 -11 -10 -5 0 -7 5 -4 10 3 6 8 10 11 10 2 0 4 -4 4 -10z
m-60 -40 c0 -5 -2 -10 -4 -10 -3 0 -8 5 -11 10 -3 6 -1 10 4 10 6 0 11 -4 11
-10z m60 -30 c0 -5 -7 -10 -16 -10 -8 0 -12 5 -9 10 3 6 10 10 16 10 5 0 9 -4
9 -10z m-60 -35 c0 -9 -6 -12 -16 -8 -13 5 -13 7 -2 14 17 11 18 11 18 -6z
m46 -25 c8 0 14 -5 14 -10 0 -7 -6 -7 -20 0 -12 6 -19 20 -19 33 l2 22 4 -22
c2 -13 11 -23 19 -23z m-46 -50 c0 -5 -2 -10 -4 -10 -3 0 -8 5 -11 10 -3 6 -1
10 4 10 6 0 11 -4 11 -10z m49 -26 c6 4 11 2 11 -3 0 -6 -6 -11 -14 -11 -8 0
-17 -10 -19 -22 -2 -13 -4 -6 -4 15 0 21 4 33 8 26 4 -6 12 -8 18 -5z m-49
-39 c0 -9 -6 -12 -16 -8 -13 5 -13 7 -2 14 17 11 18 11 18 -6z m0 -71 c0 -8
-5 -12 -10 -9 -6 4 -8 11 -5 16 9 14 15 11 15 -7z m33 -9 c-7 -21 -12 -19 -10
4 0 11 5 18 9 15 4 -3 5 -11 1 -19z m27 -25 c0 -5 -7 -10 -16 -10 -8 0 -12 5
-9 10 3 6 10 10 16 10 5 0 9 -4 9 -10z m-60 -40 c0 -5 -2 -10 -4 -10 -3 0 -8
5 -11 10 -3 6 -1 10 4 10 6 0 11 -4 11 -10z m10 -24 c0 -3 -4 -8 -10 -11 -5
-3 -10 -1 -10 4 0 6 5 11 10 11 6 0 10 -2 10 -4z m50 -6 c0 -5 -4 -10 -10 -10
-5 0 -10 5 -10 10 0 6 5 10 10 10 6 0 10 -4 10 -10z m-26 -26 c3 -8 2 -12 -4
-9 -6 3 -10 10 -10 16 0 14 7 11 14 -7z m-34 -10 c0 -8 -5 -12 -10 -9 -6 4 -8
11 -5 16 9 14 15 11 15 -7z m60 -34 c0 -5 -7 -10 -16 -10 -8 0 -12 5 -9 10 3
6 10 10 16 10 5 0 9 -4 9 -10z m-60 -35 c0 -9 -6 -12 -16 -8 -13 5 -13 7 -2
14 17 11 18 11 18 -6z m46 -25 c8 0 14 -5 14 -10 0 -7 -6 -7 -20 0 -12 6 -19
20 -19 33 l2 22 4 -22 c2 -13 11 -23 19 -23z m-46 -50 c0 -5 -2 -10 -4 -10 -3
0 -8 5 -11 10 -3 6 -1 10 4 10 6 0 11 -4 11 -10z m49 -26 c6 4 11 2 11 -3 0
-6 -6 -11 -14 -11 -8 0 -17 -10 -19 -22 -2 -13 -4 -6 -4 15 0 21 4 33 8 26 4
-6 12 -8 18 -5z m-49 -39 c0 -9 -6 -12 -16 -8 -13 5 -13 7 -2 14 17 11 18 11
18 -6z m0 -71 c0 -8 -5 -12 -10 -9 -6 4 -8 11 -5 16 9 14 15 11 15 -7z m33 -9
c-3 -9 -8 -14 -10 -11 -3 3 -2 9 2 15 9 16 15 13 8 -4z m-28 -25 c3 -5 1 -10
-4 -10 -6 0 -11 5 -11 10 0 6 2 10 4 10 3 0 8 -4 11 -10z m55 1 c0 -5 -9 -11
-21 -14 -16 -4 -18 -3 -8 9 13 16 29 19 29 5z m-60 -41 c0 -5 -2 -10 -4 -10
-3 0 -8 5 -11 10 -3 6 -1 10 4 10 6 0 11 -4 11 -10z m60 -30 c0 -5 -5 -10 -11
-10 -5 0 -7 5 -4 10 3 6 8 10 11 10 2 0 4 -4 4 -10z m-60 -36 c0 -8 -5 -12
-10 -9 -6 4 -8 11 -5 16 9 14 15 11 15 -7z"/>
<path d="M6385 8030 c3 -5 8 -10 11 -10 2 0 4 5 4 10 0 6 -5 10 -11 10 -5 0
-7 -4 -4 -10z"/>
<path d="M6398 7993 c7 -3 16 -2 19 1 4 3 -2 6 -13 5 -11 0 -14 -3 -6 -6z"/>
<path d="M6386 7961 c-3 -5 5 -11 19 -13 30 -6 32 -2 6 12 -11 6 -22 6 -25 1z"/>
<path d="M6388 7923 c7 -3 16 -2 19 1 4 3 -2 6 -13 5 -11 0 -14 -3 -6 -6z"/>
<path d="M6385 7890 c3 -5 8 -10 11 -10 2 0 4 5 4 10 0 6 -5 10 -11 10 -5 0
-7 -4 -4 -10z"/>
<path d="M6388 7853 c6 -2 18 -2 25 0 6 3 1 5 -13 5 -14 0 -19 -2 -12 -5z"/>
<path d="M6388 7783 c7 -3 16 -2 19 1 4 3 -2 6 -13 5 -11 0 -14 -3 -6 -6z"/>
<path d="M6415 7760 c-4 -6 -10 -8 -15 -5 -5 3 -11 1 -15 -5 -3 -5 3 -10 14
-10 28 0 27 -20 -1 -21 -21 -1 -21 -2 -3 -6 11 -3 23 -10 26 -15 4 -6 6 8 5
31 -1 44 -2 46 -11 31z"/>
<path d="M6385 7680 c3 -5 8 -10 11 -10 2 0 4 5 4 10 0 6 -5 10 -11 10 -5 0
-7 -4 -4 -10z"/>
<path d="M6388 7643 c7 -3 16 -2 19 1 4 3 -2 6 -13 5 -11 0 -14 -3 -6 -6z"/>
<path d="M6385 7610 c3 -5 8 -10 11 -10 2 0 4 5 4 10 0 6 -5 10 -11 10 -5 0
-7 -4 -4 -10z"/>
<path d="M6388 7573 c6 -2 18 -2 25 0 6 3 1 5 -13 5 -14 0 -19 -2 -12 -5z"/>
<path d="M6388 7503 c7 -3 16 -2 19 1 4 3 -2 6 -13 5 -11 0 -14 -3 -6 -6z"/>
<path d="M6388 7433 c6 -2 18 -2 25 0 6 3 1 5 -13 5 -14 0 -19 -2 -12 -5z"/>
<path d="M6415 7409 c-4 -6 -5 -12 -2 -15 2 -3 7 2 10 11 7 17 1 20 -8 4z"/>
<path d="M6385 7400 c3 -5 8 -10 11 -10 2 0 4 5 4 10 0 6 -5 10 -11 10 -5 0
-7 -4 -4 -10z"/>
<path d="M6384 7333 c4 -5 13 -8 19 -8 21 0 17 -24 -5 -28 l-23 -4 23 -2 c28
-1 29 -21 1 -21 -11 0 -17 -5 -14 -10 4 -7 12 -7 25 0 31 17 17 80 -18 80 -8
0 -12 -3 -8 -7z"/>
<path d="M6388 7223 c7 -3 16 -2 19 1 4 3 -2 6 -13 5 -11 0 -14 -3 -6 -6z"/>
<path d="M6400 7164 c-24 -13 -24 -14 -3 -14 12 0 23 -6 26 -12 2 -7 4 -1 3
14 0 16 -1 28 -1 27 0 -1 -11 -7 -25 -15z"/>
<path d="M6390 6316 c0 -2 9 -6 20 -9 11 -3 18 -1 14 4 -5 9 -34 13 -34 5z"/>
<path d="M6388 6243 c7 -3 16 -2 19 1 4 3 -2 6 -13 5 -11 0 -14 -3 -6 -6z"/>
<path d="M6380 6216 c0 -2 11 -6 25 -8 13 -3 22 -1 19 3 -5 9 -44 13 -44 5z"/>
<path d="M6388 6173 c7 -3 16 -2 19 1 4 3 -2 6 -13 5 -11 0 -14 -3 -6 -6z"/>
<path d="M6388 6073 c6 -2 18 -2 25 0 6 3 1 5 -13 5 -14 0 -19 -2 -12 -5z"/>
<path d="M6385 6040 c-3 -5 3 -10 14 -10 25 0 28 -17 4 -23 -15 -3 -14 -4 1
-3 11 1 21 6 23 13 5 15 -34 37 -42 23z"/>
<path d="M6390 5933 c8 -3 21 -10 28 -16 9 -7 11 -6 6 7 -3 9 -16 16 -28 15
-14 0 -16 -2 -6 -6z"/>
<path d="M6388 5863 c6 -2 18 -2 25 0 6 3 1 5 -13 5 -14 0 -19 -2 -12 -5z"/>
<path d="M6385 5830 c-3 -5 -1 -10 4 -10 6 0 11 5 11 10 0 6 -2 10 -4 10 -3 0
-8 -4 -11 -10z"/>
<path d="M6400 5804 c-25 -13 -25 -14 -2 -14 12 0 22 -4 22 -10 0 -5 -7 -10
-15 -10 -8 0 -15 -5 -15 -10 0 -7 6 -7 19 -1 11 6 19 21 19 36 0 14 -1 25 -2
24 0 -1 -12 -7 -26 -15z"/>
<path d="M6388 5723 c7 -3 16 -2 19 1 4 3 -2 6 -13 5 -11 0 -14 -3 -6 -6z"/>
<path d="M6388 5653 c6 -2 18 -2 25 0 6 3 1 5 -13 5 -14 0 -19 -2 -12 -5z"/>
<path d="M6420 5602 c0 -7 -10 -13 -22 -13 -19 -1 -20 -2 -4 -6 20 -5 44 12
33 24 -4 3 -7 1 -7 -5z"/>
<path d="M6390 5549 c0 -5 5 -7 10 -4 6 3 10 8 10 11 0 2 -4 4 -10 4 -5 0 -10
-5 -10 -11z"/>
<path d="M6388 5513 c7 -3 16 -2 19 1 4 3 -2 6 -13 5 -11 0 -14 -3 -6 -6z"/>
<path d="M6414 5489 c-3 -6 -2 -15 3 -20 5 -5 9 -1 9 11 0 23 -2 24 -12 9z"/>
<path d="M6388 5443 c6 -2 18 -2 25 0 6 3 1 5 -13 5 -14 0 -19 -2 -12 -5z"/>
<path d="M6385 5410 c3 -5 8 -10 11 -10 2 0 4 5 4 10 0 6 -5 10 -11 10 -5 0
-7 -4 -4 -10z"/>
<path d="M6400 5383 c-24 -12 -24 -13 -3 -13 12 0 25 5 28 11 11 16 2 17 -25
2z"/>
<path d="M6400 3150 c-24 -8 -24 -11 2 -14 22 -2 19 -24 -4 -29 -21 -5 -21 -5
2 -4 20 2 25 7 25 30 1 15 1 27 0 26 0 -1 -11 -5 -25 -9z"/>
<path d="M6396 3011 c-19 -7 -19 -8 3 -14 13 -3 20 -10 16 -16 -3 -6 -10 -9
-15 -6 -5 3 -11 1 -15 -5 -3 -5 1 -10 9 -10 17 0 29 17 31 42 2 20 -1 20 -29
9z"/>
<path d="M6400 2904 c-25 -13 -25 -14 -2 -14 12 0 22 -4 22 -9 0 -5 -10 -12
-22 -14 -21 -5 -20 -5 2 -4 19 2 25 8 27 30 1 15 1 27 0 26 -1 -1 -13 -7 -27
-15z"/>
<path d="M6388 2653 c7 -3 16 -2 19 1 4 3 -2 6 -13 5 -11 0 -14 -3 -6 -6z"/>
<path d="M6398 2592 c-15 -6 -14 -8 5 -18 19 -8 23 -7 23 8 0 19 -2 20 -28 10z"/>
<path d="M6400 2484 c-25 -13 -25 -14 -2 -14 12 0 22 -4 22 -10 0 -5 -10 -11
-22 -11 -21 -1 -21 -2 -3 -6 11 -3 23 -10 26 -15 3 -5 6 9 6 31 0 23 -1 41 -1
40 -1 -1 -12 -7 -26 -15z"/>
<path d="M6403 2369 c9 -6 15 -15 12 -20 -4 -5 -10 -7 -15 -4 -5 3 -11 1 -14
-4 -3 -5 5 -11 17 -13 17 -3 23 0 22 11 -1 23 -14 41 -28 41 -7 0 -4 -5 6 -11z"/>
<path d="M6398 2303 c7 -3 16 -2 19 1 4 3 -2 6 -13 5 -11 0 -14 -3 -6 -6z"/>
<path d="M6388 2233 c7 -3 16 -2 19 1 4 3 -2 6 -13 5 -11 0 -14 -3 -6 -6z"/>
</g>
</svg>
